# xmcd
#
# Track frame offsets:
#	150
#	17761
#	41078
#	67539
#	100042
#	105717
#	128739
#	149632
#	166235
#	199058
#
# Disc length: 3428 seconds
#
# Revision: 2
# Processed by: cddbd v1.4PL0 Copyright (c) Steve Scherf et al.
# Submitted via: EasyCDDAExtractor 5.0.6
#
DISCID=810d620a
DTITLE=Al Kooper  - Soul of a Man: Live disc 2
DYEAR=1955
DGENRE=
TTITLE0=I Can't Quit Her 
TTITLE1=I Wanna Little Girl 
TTITLE2=My Days Are Numbered 
TTITLE3=I Love You More Than You'll Ever Know 
TTITLE4=Vocal Intro 
TTITLE5=Made in the Shade 
TTITLE6=Downtime
TTITLE7=Violets of Dawn 
TTITLE8=Albert's Shuffle 
TTITLE9=Closing Medley:You Can't Always Get What You Want/Season of the Witch 
EXTD=
EXTT0=
EXTT1=
EXTT2=
EXTT3=
EXTT4=
EXTT5=
EXTT6=
EXTT7=
EXTT8=
EXTT9=
PLAYORDER=
